<?xml version="1.0" encoding="utf-8"?>
<!-- Generator: Adobe Illustrator 26.0.3, SVG Export Plug-In . SVG Version: 6.00 Build 0)  -->
<svg version="1.1" id="Layer_1" xmlns="http://www.w3.org/2000/svg" xmlns:xlink="http://www.w3.org/1999/xlink" x="0px" y="0px"
	 viewBox="0 0 13 13" style="enable-background:new 0 0 13 13;" xml:space="preserve">
<style type="text/css">
	.st0{opacity:0.1;fill:#FFFFFF;stroke:#FFFFFF;stroke-miterlimit:10;}
</style>
<path class="st0" d="M11.5,1.5v9.3c0,0.4-0.3,0.7-0.7,0.7H2.2c-0.4,0-0.7-0.3-0.7-0.7V2.2c0-0.4,0.3-0.7,0.7-0.7l0,0H11.5z"/>
<path class="st0" d="M11.8,0.5h-10c-0.7,0-1.3,0.6-1.3,1.3c0,0,0,0,0,0v9.3c0,0.7,0.6,1.3,1.3,1.3c0,0,0,0,0,0h9.3
	c0.7,0,1.3-0.6,1.4-1.3c0,0,0,0,0,0v-10C12.5,0.8,12.2,0.5,11.8,0.5C11.8,0.5,11.8,0.5,11.8,0.5z M11.5,10.8c0,0.4-0.3,0.7-0.7,0.7
	H2.2c-0.4,0-0.7-0.3-0.7-0.7V2.2c0-0.4,0.3-0.7,0.7-0.7l0,0h9.3V10.8z"/>
</svg>
