<svg xmlns="http://www.w3.org/2000/svg" viewBox="0 0 105.11 103.92"><defs><style>.cls-1{fill:#b1361e;}.cls-2{fill:#fff;}</style></defs><g id="Layer_2" data-name="Layer 2"><g id="Layer_1-2" data-name="Layer 1"><path class="cls-1" d="M52.5,103.92H5.36c-3.56,0-5.36-1.8-5.36-5.37V5.19C0,1.88,1.86,0,5.16,0H99.81c3.4,0,5.29,1.88,5.29,5.27q0,46.64,0,93.27c0,3.55-1.83,5.38-5.37,5.38Zm4.11-91.54C55.35,9.51,54.16,9,50.9,10a4.18,4.18,0,0,0-3.82-2,4.38,4.38,0,0,0-3.58,2.47,4.41,4.41,0,0,0-4.49-1,4.69,4.69,0,0,0-3,3.56,5,5,0,0,0-6.82,5.77c-4.33.46-6.07,2.5-6.18,7.22a3.18,3.18,0,0,0-2.27,2.36c-2.39-.43-4.59.4-4.81,3.83a4.16,4.16,0,0,0-3.65,2.13,4.36,4.36,0,0,0,.14,4.31C8.76,40.52,8.23,43,10.67,46.54a4.89,4.89,0,0,0-2,4.82,5.08,5.08,0,0,0,3.55,4,6.12,6.12,0,0,0-.63,5.34,6,6,0,0,0,3.89,3.76A3.18,3.18,0,0,0,16.3,68c-2,2.3-1.76,4.07.69,6.09-1.56,3.45.52,6.23,4,6.42a4.56,4.56,0,0,0,1.33,4.31,4.69,4.69,0,0,0,4.49,1c.74,4.16,5,6,8.46,3.22A5.88,5.88,0,0,0,40,92.33,6.05,6.05,0,0,0,45.38,90c1,2,1.48,2.24,4,2.16a3.69,3.69,0,0,0,2.27,2.6,3.91,3.91,0,0,0,3.39-.46c2.48,2.9,4.93,2.78,7.51-.36a4.4,4.4,0,0,0,4.41.84,4.64,4.64,0,0,0,2.94-3.48,5,5,0,0,0,5.31-.78,5.07,5.07,0,0,0,1.59-5c4.61-.88,5.6-2,6.26-6.86a.83.83,0,0,1,.27-.43c.71-.66,1.44-1.3,2.38-2.13a3.57,3.57,0,0,0,3-.74A4,4,0,0,0,90,72.09a4.18,4.18,0,0,0,3.55-6.38c3.5-1.66,4.36-5,1.78-7.89A5,5,0,0,0,97.3,53a5.14,5.14,0,0,0-3.47-4c1.93-4.21,1-6.71-3.29-9.17a3.14,3.14,0,0,0-.82-3.5c1.91-2.39,1.73-3.67-.79-6.14,1.34-3.42.27-5.25-3.75-6.39-.35-4.41-1.74-5.67-6-5.31a5,5,0,0,0-8.46-3.13A6,6,0,0,0,65.9,12a5.9,5.9,0,0,0-5.27,2.4C59.66,12.42,58.67,11.94,56.61,12.38Z"/><path class="cls-2" d="M56.61,12.38c2.06-.44,3,0,4,2A5.9,5.9,0,0,1,65.9,12a6,6,0,0,1,4.86,3.33,5,5,0,0,1,8.46,3.13c4.22-.36,5.61.9,6,5.31,4,1.14,5.09,3,3.75,6.39,2.52,2.47,2.7,3.75.79,6.14a3.14,3.14,0,0,1,.82,3.5c4.32,2.46,5.22,5,3.29,9.17a5.14,5.14,0,0,1,3.47,4,5,5,0,0,1-1.93,4.84c2.58,2.9,1.72,6.23-1.78,7.89A4.18,4.18,0,0,1,90,72.09a4,4,0,0,1-1.31,3.2,3.57,3.57,0,0,1-3,.74c-.94.83-1.67,1.47-2.38,2.13a.83.83,0,0,0-.27.43c-.66,4.89-1.65,6-6.26,6.86a5.07,5.07,0,0,1-1.59,5,5,5,0,0,1-5.31.78A4.64,4.64,0,0,1,67,94.74a4.4,4.4,0,0,1-4.41-.84c-2.58,3.14-5,3.26-7.51.36a3.91,3.91,0,0,1-3.39.46,3.69,3.69,0,0,1-2.27-2.6c-2.54.08-3-.18-4-2.16A6.05,6.05,0,0,1,40,92.33,5.88,5.88,0,0,1,35.22,89c-3.49,2.73-7.72.94-8.46-3.22a4.69,4.69,0,0,1-4.49-1,4.56,4.56,0,0,1-1.33-4.31c-3.43-.19-5.51-3-4-6.42-2.45-2-2.68-3.79-.69-6.09a3.18,3.18,0,0,1-.8-3.55,6,6,0,0,1-3.89-3.76,6.12,6.12,0,0,1,.63-5.34,5.08,5.08,0,0,1-3.55-4,4.89,4.89,0,0,1,2-4.82c-2.44-3.58-1.91-6,1.74-7.83a4.36,4.36,0,0,1-.14-4.31,4.16,4.16,0,0,1,3.65-2.13c.22-3.43,2.42-4.26,4.81-3.83A3.18,3.18,0,0,1,23,26.08c.11-4.72,1.85-6.76,6.18-7.22A5,5,0,0,1,36,13.09a4.69,4.69,0,0,1,3-3.56,4.41,4.41,0,0,1,4.49,1A4.38,4.38,0,0,1,47.08,8a4.18,4.18,0,0,1,3.82,2C54.16,9,55.35,9.51,56.61,12.38ZM46.24,34.79c-1.93-2.79-1.41-4.7,1.81-6.89-.91-3.83.26-5.57,4.5-6.63A5.29,5.29,0,0,1,55,16.86c.16-.11.11-.55.18-1-2.25,1.25-3.84.65-5-.89a10.56,10.56,0,0,1-2.78.88,11.23,11.23,0,0,1-2.84-.61c-1.09,2.38-3.06,3.21-5.7,2.62a5.24,5.24,0,0,1-4.55,4.64c1,3.26.14,5.79-2.66,7.65A5.21,5.21,0,0,1,32,36.36a4.81,4.81,0,0,1,2,5.47,4.33,4.33,0,0,1,3.5,4.64c2.37.42,2.48.49,3.64,2.33,2.29-.64,3.08-.31,4.5,1.85l1.4-.12c.39-.78.76-1.47,1.09-2.18a1,1,0,0,0,.05-.61c-.18-.69-.4-1.38-.66-2.26-1.84-1.06-2.22-2.35-1.19-4.71C44.07,38.88,44.16,36.66,46.24,34.79ZM53.53,83c-.46,2.61-.49,2.64-2.53,4.5-.17.15-.16.51-.3,1,2.26-1.14,3.89-.59,5.2,1,2.05-1.36,2.79-1.39,5.39-.27,1.13-2.56,3.14-3.38,5.83-2.78.39-2.69,2.06-4.08,4.57-4.59-1.09-3.27-.13-5.78,2.64-7.67A5.12,5.12,0,0,1,74.07,68,4.82,4.82,0,0,1,72,62.49a4.33,4.33,0,0,1-3.57-4.56c-2.48-.59-2.67-.72-3.57-2.45-2.47.58-3,.36-4.56-1.8H58.86l-1.4,2.45a2.19,2.19,0,0,1,.74,2.57c2.15,1.31,2.48,2.46,1.45,4.89,2.16,2,2.21,3.11.24,5.92,1.83,3.11,1.26,5.1-2,7C59.05,80.45,56.48,82.77,53.53,83Zm-17.68-.13c2.34-2.6,5-3,8.07-1.4a5.15,5.15,0,0,1,5.24-3.21A4.81,4.81,0,0,1,53,73.85a4.25,4.25,0,0,1,2.26-5.31,9.81,9.81,0,0,1-.33-2.33A10,10,0,0,1,55.67,64c-1.48-1.37-1.62-2.57-.52-4.52l-.87-1.63H52a9.78,9.78,0,0,1-1.43,1.74,1,1,0,0,0-.49,1,3,3,0,0,1-2.57,3.12c-.34,0-.68.06-1,.09a3.68,3.68,0,0,1-1.69,2.86,3.74,3.74,0,0,1-3.23.17c-1.68,3.26-3.79,3.82-7.06,1.9a4.63,4.63,0,0,1-7.84-.63c-2.25,1.32-4.31.88-6.35-.49a4,4,0,0,1,1.36,5,4.42,4.42,0,0,1,2.74,4.66A4.65,4.65,0,0,1,29.66,81,5.22,5.22,0,0,1,35.85,82.83Zm17.2-52.37a4.23,4.23,0,0,1-2.33,5.32,9.36,9.36,0,0,1,.39,2.39,9.19,9.19,0,0,1-.77,2.2c1.48,1.6,1.58,2.38.5,4.62l.66,1c.84,0,1.62,0,2.4,0a1.13,1.13,0,0,0,.59-.29,4.06,4.06,0,0,0,1.62-3,2.38,2.38,0,0,1,1.11-1.45,10.08,10.08,0,0,1,2.23-.78,3.5,3.5,0,0,1,5.08-2.83,4.17,4.17,0,0,1,2.9-2.87,4.29,4.29,0,0,1,4,1,4.61,4.61,0,0,1,7.86.56c2.25-1.33,4.32-1,6.35.49-1.62-1.38-2.1-3-1.36-4.71a11.77,11.77,0,0,1-2-2.11,11.5,11.5,0,0,1-.79-2.78c-2.73.24-4.39-1.13-5.14-3.78a5.26,5.26,0,0,1-6.19-1.87,6.45,6.45,0,0,1-3.69,2.22,6.59,6.59,0,0,1-4.29-.81,5.21,5.21,0,0,1-5.3,3.26A4.77,4.77,0,0,1,53.05,30.46ZM23.16,59a5.19,5.19,0,0,1,5.47,3,4.77,4.77,0,0,1,5.62,1.09,4.31,4.31,0,0,1,5.8-.6A3.5,3.5,0,0,1,44,60.6c.91-2.48,1.56-3,3.78-3l1-1.56-1.07-1.58-3.21-.71c-1.78,1.07-2.81.86-4.65-1.17C37,53.56,35.9,53,34.56,50c-3.76,0-5.05-1.23-5.15-5-4.2-1.48-5.1-3.17-3.79-7.18a5.23,5.23,0,0,1-2.51-5.77,3.77,3.77,0,0,1-3.28,3.28,11.87,11.87,0,0,1-.77,2.8,11.9,11.9,0,0,1-2,2.11c1.48,2.61,1.37,3.75-.72,6.43a5.15,5.15,0,0,1,1.5,6.17C21.19,53.54,22.91,55.59,23.16,59Zm59.62-13.7a5.14,5.14,0,0,1-5.44-3,4.72,4.72,0,0,1-5.53-1.1,4.26,4.26,0,0,1-5.75.73,10.07,10.07,0,0,1-1.87,1.51,9.16,9.16,0,0,1-2.27.49c-.66,2.11-1.41,2.67-3.8,2.75l-.55,1.18,1.18,2,2.62.75c1.91-1.2,3.09-1,4.8,1.11,2.9-.89,4.13-.27,5.27,2.66,3.88-.34,5.35,1.08,5.36,5.25a4.73,4.73,0,0,1,3.56,2.51,4.87,4.87,0,0,1-.08,4.37,5.26,5.26,0,0,1,2.54,5.87c1-2.44,1.12-2.6,3.53-3.47A4.2,4.2,0,0,1,89,64.25c-1.69-2.38-1.42-4.57.62-6.56a5.22,5.22,0,0,1-1.53-6.25C84.7,50.8,83,48.74,82.78,45.32Z"/><path class="cls-1" d="M46.24,34.79c-2.08,1.87-2.17,4.09.11,6-1,2.36-.65,3.65,1.19,4.71.26.88.48,1.57.66,2.26a1,1,0,0,1-.05.61c-.33.71-.7,1.4-1.09,2.18l-1.4.12c-1.42-2.16-2.21-2.49-4.5-1.85C40,47,39.89,46.89,37.52,46.47A4.33,4.33,0,0,0,34,41.83a4.81,4.81,0,0,0-2-5.47,5.21,5.21,0,0,0-.29-6.23c2.8-1.86,3.69-4.39,2.66-7.65a5.24,5.24,0,0,0,4.55-4.64c2.64.59,4.61-.24,5.7-2.62a11.23,11.23,0,0,0,2.84.61A10.56,10.56,0,0,0,50.22,15c1.16,1.54,2.75,2.14,5,.89-.07.47,0,.91-.18,1a5.29,5.29,0,0,0-2.49,4.41c-4.24,1.06-5.41,2.8-4.5,6.63C44.83,30.09,44.31,32,46.24,34.79Z"/><path class="cls-1" d="M53.53,83c2.95-.19,5.52-2.51,4.37-6.46,3.25-1.89,3.82-3.88,2-7,2-2.81,1.92-4-.24-5.92,1-2.43.7-3.58-1.45-4.89a2.19,2.19,0,0,0-.74-2.57l1.4-2.45h1.42c1.53,2.16,2.09,2.38,4.56,1.8.9,1.73,1.09,1.86,3.57,2.45A4.33,4.33,0,0,0,72,62.49,4.82,4.82,0,0,0,74.07,68a5.12,5.12,0,0,0,.26,6.23c-2.77,1.89-3.73,4.4-2.64,7.67-2.51.51-4.18,1.9-4.57,4.59-2.69-.6-4.7.22-5.83,2.78-2.6-1.12-3.34-1.09-5.39.27-1.31-1.61-2.94-2.16-5.2-1,.14-.52.13-.88.3-1C53,85.6,53.07,85.57,53.53,83Z"/><path class="cls-1" d="M35.85,82.83A5.22,5.22,0,0,0,29.66,81a4.65,4.65,0,0,0-5.23-3.81,4.42,4.42,0,0,0-2.74-4.66,4,4,0,0,0-1.36-5c2,1.37,4.1,1.81,6.35.49a4.63,4.63,0,0,0,7.84.63c3.27,1.92,5.38,1.36,7.06-1.9a3.74,3.74,0,0,0,3.23-.17,3.68,3.68,0,0,0,1.69-2.86c.36,0,.7,0,1-.09a3,3,0,0,0,2.57-3.12,1,1,0,0,1,.49-1A9.78,9.78,0,0,0,52,57.85h2.25l.87,1.63c-1.1,2-1,3.15.52,4.52a10,10,0,0,0-.77,2.21,9.81,9.81,0,0,0,.33,2.33A4.25,4.25,0,0,0,53,73.85a4.81,4.81,0,0,0-3.81,4.37,5.15,5.15,0,0,0-5.24,3.21C40.88,79.85,38.19,80.23,35.85,82.83Z"/><path class="cls-1" d="M53.05,30.46a4.77,4.77,0,0,0,3.76-4.3,5.21,5.21,0,0,0,5.3-3.26,6.59,6.59,0,0,0,4.29.81,6.45,6.45,0,0,0,3.69-2.22,5.26,5.26,0,0,0,6.19,1.87c.75,2.65,2.41,4,5.14,3.78a11.5,11.5,0,0,0,.79,2.78,11.77,11.77,0,0,0,2,2.11c-.74,1.71-.26,3.33,1.36,4.71-2-1.46-4.1-1.82-6.35-.49a4.61,4.61,0,0,0-7.86-.56,4.29,4.29,0,0,0-4-1,4.17,4.17,0,0,0-2.9,2.87,3.5,3.5,0,0,0-5.08,2.83,10.08,10.08,0,0,0-2.23.78,2.38,2.38,0,0,0-1.11,1.45,4.06,4.06,0,0,1-1.62,3,1.13,1.13,0,0,1-.59.29c-.78,0-1.56,0-2.4,0l-.66-1c1.08-2.24,1-3-.5-4.62a9.19,9.19,0,0,0,.77-2.2,9.36,9.36,0,0,0-.39-2.39A4.23,4.23,0,0,0,53.05,30.46Z"/><path class="cls-1" d="M23.16,59c-.25-3.43-2-5.48-5.31-6.17a5.15,5.15,0,0,0-1.5-6.17c2.09-2.68,2.2-3.82.72-6.43a11.9,11.9,0,0,0,2-2.11,11.87,11.87,0,0,0,.77-2.8,3.77,3.77,0,0,0,3.28-3.28,5.23,5.23,0,0,0,2.51,5.77c-1.31,4-.41,5.7,3.79,7.18.1,3.72,1.39,5,5.15,5,1.34,3,2.44,3.6,5.27,2.67,1.84,2,2.87,2.24,4.65,1.17l3.21.71,1.07,1.58-1,1.56c-2.22,0-2.87.47-3.78,3a3.5,3.5,0,0,0-3.93,1.94,4.31,4.31,0,0,0-5.8.6,4.77,4.77,0,0,0-5.62-1.09A5.19,5.19,0,0,0,23.16,59Z"/><path class="cls-1" d="M82.78,45.32c.22,3.42,1.92,5.48,5.33,6.12a5.22,5.22,0,0,0,1.53,6.25c-2,2-2.31,4.18-.62,6.56a4.2,4.2,0,0,0-2.67,4.63c-2.41.87-2.56,1-3.53,3.47a5.26,5.26,0,0,0-2.54-5.87,4.87,4.87,0,0,0,.08-4.37A4.73,4.73,0,0,0,76.8,59.6c0-4.17-1.48-5.59-5.36-5.25-1.14-2.93-2.37-3.55-5.27-2.66-1.71-2.08-2.89-2.31-4.8-1.11l-2.62-.75-1.18-2,.55-1.18c2.39-.08,3.14-.64,3.8-2.75a9.16,9.16,0,0,0,2.27-.49,10.07,10.07,0,0,0,1.87-1.51,4.26,4.26,0,0,0,5.75-.73,4.72,4.72,0,0,0,5.53,1.1A5.14,5.14,0,0,0,82.78,45.32Z"/></g></g></svg>