<svg xmlns="http://www.w3.org/2000/svg" viewBox="0 0 13 12.9"><defs><style>.cls-1,.cls-2{fill:#fff;stroke:#fff;stroke-miterlimit:10;isolation:isolate;}.cls-1{opacity:0.1;}.cls-2{opacity:0.04;}</style></defs><g id="Layer_2" data-name="Layer 2"><g id="Layer_1-2" data-name="Layer 1"><path class="cls-1" d="M11.5,1.5v9.3a.68.68,0,0,1-.7.7H2.2a.68.68,0,0,1-.7-.7V2.2a.68.68,0,0,1,.7-.7h9.3Z"/><path class="cls-2" d="M11.8.5H1.8A1.32,1.32,0,0,0,.5,1.8h0v9.3a1.32,1.32,0,0,0,1.3,1.3h9.3a1.49,1.49,0,0,0,1.4-1.3h0V1.1a.67.67,0,0,0-.7-.6Zm-.3,10.3a.68.68,0,0,1-.7.7H2.2a.68.68,0,0,1-.7-.7V2.2a.68.68,0,0,1,.7-.7h9.3Z"/></g></g></svg>